# xmcd CD database file
#
# Track frame offsets:
#	150
#	15909
#	33331
#	47988
#	74128
#	91025
#	115802
#	139139
#	158666
#	174178
#	189600
#
# Disc length: 2746 seconds
#
# Revision: 2
# Processed by: cddbd v1.5PL3 Copyright (c) Steve Scherf et al.
# Submitted via: CDex 1.51
#
DISCID=890ab80b
DTITLE=クラムボン - JP
DYEAR=1900
DGENRE=Japanese Pop
TTITLE0=はなれ ばなれ
TTITLE1=いたくない いたくない
TTITLE2=タイムリミット (streeya♪mix)
TTITLE3=パンと蜜をめしあがれ (JP version)
TTITLE4=ORENZI
TTITLE5=波は
TTITLE6=風邪をひいたひょうしに
TTITLE7=トレモロ
TTITLE8=雲ゆき
TTITLE9=Our Songs (MUSIC FAIR mix)
TTITLE10=GLAMMBON
EXTD=
EXTT0=
EXTT1=
EXTT2=
EXTT3=
EXTT4=
EXTT5=
EXTT6=
EXTT7=
EXTT8=
EXTT9=
EXTT10=
PLAYORDER=
